<?xml version="1.0" encoding="iso-8859-1"?>
<!-- Generator: Adobe Illustrator 18.0.0, SVG Export Plug-In . SVG Version: 6.00 Build 0)  -->
<!DOCTYPE svg PUBLIC "-//W3C//DTD SVG 1.1//EN" "http://www.w3.org/Graphics/SVG/1.1/DTD/svg11.dtd">
<svg version="1.1" id="Capa_1" xmlns="http://www.w3.org/2000/svg" xmlns:xlink="http://www.w3.org/1999/xlink" x="0px" y="0px"
	 viewBox="0 0 487.489 487.489" style="enable-background:new 0 0 487.489 487.489;" xml:space="preserve">
<g>
	<path d="M113.353,301.432c3.846,6.427,10.661,9.986,17.637,9.986c3.59,0,7.229-0.938,10.551-2.924l71.498-42.836
		c7.607,5.093,16.746,8.08,26.598,8.08c26.486,0,47.97-21.489,47.97-47.968c0-26.487-21.483-47.976-47.97-47.976
		c-26.486,0-47.953,21.489-47.953,47.976c0,1.541,0.318,2.995,0.464,4.505l-71.739,42.979
		C110.685,279.085,107.524,291.7,113.353,301.432z"/>
	<path d="M285.49,389.146c-14.616,4.114-29.95,6.466-45.853,6.466c-93.648,0-169.834-76.194-169.834-169.842
		c0-93.648,76.186-169.842,169.834-169.842S409.47,132.122,409.47,225.77c0,4.791-0.332,9.494-0.717,14.181
		c9.203,1.779,17.781,6.069,24.838,12.576c6.607,6.125,15.617,15.149,25.213,26.462c4.147-17.096,6.594-34.86,6.594-53.219
		C465.398,101.282,364.125,0,239.637,0S13.874,101.282,13.874,225.77c0,124.488,101.274,225.77,225.763,225.77
		c16.778,0,33.08-1.978,48.826-5.466c-3.147-10.487-4.877-21.569-4.877-33.055C283.586,404.852,284.332,396.915,285.49,389.146z"/>
	<path d="M405.656,282.659c-1.842-1.708-4.193-2.566-6.546-2.566c-2.319,0-4.653,0.842-6.499,2.534
		c-18.159,16.684-67.94,68.099-67.94,130.392c0,41.126,33.334,74.47,74.471,74.47c41.121,0,74.473-33.344,74.473-74.47
		C473.615,351.227,423.787,299.461,405.656,282.659z"/>
</g>
<g>
</g>
<g>
</g>
<g>
</g>
<g>
</g>
<g>
</g>
<g>
</g>
<g>
</g>
<g>
</g>
<g>
</g>
<g>
</g>
<g>
</g>
<g>
</g>
<g>
</g>
<g>
</g>
<g>
</g>
</svg>
