<?xml version="1.0" encoding="utf-8"?>
<!-- Generator: Adobe Illustrator 22.0.1, SVG Export Plug-In . SVG Version: 6.00 Build 0)  -->
<svg xmlns="http://www.w3.org/2000/svg" xmlns:xlink="http://www.w3.org/1999/xlink" version="1.1" id="Layer_2" x="0px" y="0px" viewBox="0 0 256 256" style="enable-background:new 0 0 256 256;" xml:space="preserve" width="512" height="512">
<style type="text/css">
	.st0{fill:#3A312A;}
	.st1{fill:#D7E057;}
	.st2{fill:#F16C7A;}
	.st3{fill:#8AC6DD;}
	.st4{fill:#CE4E61;}
	.st5{fill:#68A8BC;}
	.st6{fill:#87796F;}
	.st7{fill:#FCE8CB;}
	.st8{fill:#6B5B51;}
	.st9{fill:#B9BC39;}
	.st10{fill:#CCAE8B;}
	.st11{fill:#8AC6DD;stroke:#3A312A;stroke-width:3;stroke-linecap:round;stroke-linejoin:round;stroke-miterlimit:10;}
	.st12{fill:#F5978A;}
	.st13{fill-rule:evenodd;clip-rule:evenodd;fill:#D7E057;}
	.st14{fill-rule:evenodd;clip-rule:evenodd;fill:#FCE8CB;}
</style>
<g>
	<g>
		<g>
			<path class="st1" d="M47.409,41.113c-0.974,11.564-13.024,13.39-13.024,13.39c10.347,0.487,12.925,14.059,12.925,14.059     C47.53,58.885,60.631,54.36,60.631,54.36C50.817,53.772,47.409,41.113,47.409,41.113z"/>
		</g>
	</g>
	<g>
		<g>
			<path class="st0" d="M60.721,52.862c-8.606-0.515-11.833-12.024-11.864-12.141c-0.191-0.703-0.864-1.163-1.583-1.102     c-0.725,0.066-1.298,0.642-1.359,1.367C45.054,51.203,34.601,52.951,34.16,53.02c-0.763,0.115-1.313,0.79-1.273,1.561     c0.04,0.77,0.657,1.384,1.428,1.421c9.028,0.425,11.498,12.718,11.522,12.842c0.137,0.711,0.759,1.217,1.472,1.217     c0.042,0,0.084-0.001,0.126-0.005c0.764-0.064,1.357-0.693,1.375-1.459c0.195-8.509,12.192-12.777,12.313-12.819     c0.675-0.235,1.092-0.914,0.994-1.623C62.018,53.446,61.435,52.905,60.721,52.862z M47.154,63.208     c-1.356-3.13-3.709-6.907-7.587-8.876c2.931-1.405,6.409-3.913,8.202-8.272c1.551,3.071,4.2,6.88,8.334,8.722     C53.096,56.421,49.181,59.187,47.154,63.208z"/>
		</g>
	</g>
	<g>
		<g>
			<path class="st1" d="M25.71,58.094c-0.689,8.179-9.212,9.47-9.212,9.47c7.318,0.344,9.142,9.944,9.142,9.944     c0.156-6.844,9.422-10.045,9.422-10.045C28.121,67.048,25.71,58.094,25.71,58.094z"/>
		</g>
	</g>
	<g>
		<g>
			<path class="st0" d="M35.152,65.966c-5.767-0.345-7.973-8.186-7.994-8.265c-0.19-0.702-0.853-1.167-1.582-1.102     c-0.726,0.065-1.299,0.642-1.36,1.368c-0.579,6.871-7.646,8.067-7.942,8.114c-0.763,0.115-1.313,0.79-1.273,1.561     c0.04,0.77,0.657,1.384,1.428,1.421c6.035,0.284,7.723,8.644,7.739,8.725c0.135,0.713,0.759,1.22,1.472,1.22     c0.042,0,0.083-0.001,0.125-0.005c0.765-0.063,1.358-0.694,1.376-1.461c0.13-5.709,8.332-8.633,8.413-8.661     c0.676-0.234,1.094-0.913,0.996-1.622C36.451,66.55,35.866,66.009,35.152,65.966z M25.567,72.761     c-0.924-1.886-2.34-3.947-4.447-5.28c1.856-1.041,3.697-2.63,4.87-4.917c1.057,1.874,2.655,3.955,4.941,5.224     C29.082,68.889,26.943,70.528,25.567,72.761z"/>
		</g>
	</g>
	<g>
		<g>
			<path class="st1" d="M25.71,31.436c-0.689,8.179-9.212,9.471-9.212,9.471c7.318,0.344,9.142,9.944,9.142,9.944     c0.156-6.845,9.422-10.045,9.422-10.045C28.121,40.39,25.71,31.436,25.71,31.436z"/>
		</g>
	</g>
	<g>
		<g>
			<path class="st0" d="M35.152,39.308c-5.767-0.345-7.973-8.186-7.994-8.265c-0.19-0.702-0.853-1.168-1.582-1.102     c-0.726,0.065-1.299,0.642-1.36,1.368c-0.579,6.871-7.646,8.067-7.942,8.114c-0.763,0.115-1.313,0.79-1.273,1.561     c0.04,0.77,0.657,1.384,1.427,1.421c6.036,0.284,7.724,8.644,7.739,8.726c0.135,0.713,0.759,1.22,1.472,1.22     c0.042,0,0.083-0.001,0.125-0.005c0.765-0.063,1.358-0.694,1.376-1.461c0.13-5.709,8.332-8.634,8.413-8.662     c0.676-0.234,1.094-0.913,0.996-1.622C36.451,39.893,35.866,39.351,35.152,39.308z M25.567,46.103     c-0.924-1.885-2.34-3.947-4.447-5.28c1.856-1.041,3.697-2.63,4.871-4.916c1.057,1.874,2.655,3.954,4.941,5.224     C29.082,42.231,26.943,43.871,25.567,46.103z"/>
		</g>
	</g>
	<g>
		<g>
			<path class="st1" d="M239.068,153.677c-0.243-14.237-5.868-27.166-14.926-36.837c-10.099-10.804-24.479-17.554-40.43-17.554     H168.19v71.461H16.034v22.107h223.043V154.65C239.076,154.323,239.076,154.004,239.068,153.677z"/>
		</g>
	</g>
	<g>
		<g>
			<path class="st0" d="M240.568,153.651c-0.242-14.103-5.687-27.54-15.33-37.836c-10.711-11.458-25.846-18.029-41.525-18.029     H168.19c-0.828,0-1.5,0.671-1.5,1.5v7.422c0,0.829,0.672,1.5,1.5,1.5c0.828,0,1.5-0.671,1.5-1.5v-5.922h14.022     c14.852,0,29.188,6.225,39.335,17.079c9.135,9.753,14.292,22.48,14.521,35.848c0.008,0.314,0.008,0.622,0.008,0.938v36.703     H17.534v-19.106H168.19c0.828,0,1.5-0.672,1.5-1.5v-48.831c0-0.829-0.672-1.5-1.5-1.5c-0.828,0-1.5,0.671-1.5,1.5v47.331H16.034     c-0.829,0-1.5,0.672-1.5,1.5v22.106c0,0.828,0.671,1.5,1.5,1.5h223.042c0.828,0,1.5-0.672,1.5-1.5V154.65     C240.576,154.312,240.576,153.98,240.568,153.651z"/>
		</g>
	</g>
	<g>
		<g>
			<path class="st6" d="M240.444,192.853H15.556c-2.402,0-4.35,1.947-4.35,4.35c0,2.402,1.948,4.35,4.35,4.35h224.887     c2.402,0,4.35-1.947,4.35-4.35C244.793,194.801,242.846,192.853,240.444,192.853z"/>
		</g>
	</g>
	<g>
		<g>
			<path class="st0" d="M240.443,191.354H15.557c-3.226,0-5.85,2.624-5.85,5.85s2.625,5.85,5.85,5.85H138.15     c0.828,0,1.5-0.672,1.5-1.5s-0.672-1.5-1.5-1.5H15.557c-1.572,0-2.85-1.278-2.85-2.85s1.278-2.85,2.85-2.85h224.887     c1.571,0,2.85,1.278,2.85,2.85s-1.278,2.85-2.85,2.85H152.85c-0.828,0-1.5,0.672-1.5,1.5s0.672,1.5,1.5,1.5h87.594     c3.226,0,5.85-2.624,5.85-5.85S243.669,191.354,240.443,191.354z"/>
		</g>
	</g>
	<g>
		<g>
			<path class="st3" d="M224.142,116.841h-36.073c-2.585,0-4.684,1.805-4.684,4.029v28.777c0,2.225,2.099,4.03,4.684,4.03h50.999     C238.825,139.44,233.2,126.512,224.142,116.841z"/>
		</g>
	</g>
	<g>
		<g>
			<path class="st0" d="M225.236,115.816c-0.283-0.303-0.68-0.475-1.095-0.475h-36.072c-3.41,0-6.185,2.48-6.185,5.529v28.778     c0,3.049,2.774,5.529,6.185,5.529h50.999c0.402,0,0.788-0.161,1.069-0.448c0.282-0.287,0.438-0.675,0.431-1.077     C240.326,139.55,234.882,126.113,225.236,115.816z M188.069,152.178c-1.756,0-3.185-1.135-3.185-2.529v-28.778     c0-1.395,1.429-2.529,3.185-2.529h35.417c8.518,9.314,13.464,21.253,14.034,33.836H188.069z"/>
		</g>
	</g>
	<g>
		<g>
			<path class="st2" d="M125.566,94.314H57.756c-21.111,0-38.224,17.114-38.224,38.224v0c0,21.111,17.114,38.224,38.224,38.224     h67.811c21.111,0,38.225-17.114,38.225-38.224v0C163.791,111.428,146.677,94.314,125.566,94.314z"/>
		</g>
	</g>
	<g>
		<g>
			<path class="st0" d="M125.566,92.814h-67.81c-21.904,0-39.725,17.82-39.725,39.725c0,21.903,17.82,39.724,39.725,39.724h67.81     c21.904,0,39.725-17.82,39.725-39.724C165.291,110.635,147.471,92.814,125.566,92.814z M125.566,169.263h-67.81     c-20.25,0-36.725-16.475-36.725-36.724c0-20.25,16.475-36.725,36.725-36.725h67.81c20.25,0,36.725,16.475,36.725,36.725     C162.291,152.788,145.816,169.263,125.566,169.263z"/>
		</g>
	</g>
	<g>
		<g>
			<rect x="56.649" y="87.24" class="st1" width="14.739" height="7.074"/>
		</g>
	</g>
	<g>
		<g>
			<path class="st0" d="M71.388,85.74H56.649c-0.829,0-1.5,0.671-1.5,1.5v7.075c0,0.829,0.671,1.5,1.5,1.5h14.739     c0.829,0,1.5-0.671,1.5-1.5V87.24C72.888,86.411,72.216,85.74,71.388,85.74z M69.888,92.814H58.149V88.74h11.739V92.814z"/>
		</g>
	</g>
	<g>
		<g>
			<path class="st1" d="M73.532,81.5H54.504c-1.585,0-2.87,1.285-2.87,2.87s1.285,2.87,2.87,2.87h19.028     c1.585,0,2.87-1.285,2.87-2.87S75.117,81.5,73.532,81.5z"/>
		</g>
	</g>
	<g>
		<g>
			<path class="st0" d="M73.532,80H54.504c-2.409,0-4.37,1.96-4.37,4.37c0,2.409,1.96,4.37,4.37,4.37h19.028     c2.41,0,4.37-1.96,4.37-4.37C77.902,81.96,75.942,80,73.532,80z M73.532,85.74H54.504c-0.755,0-1.37-0.614-1.37-1.37     S53.749,83,54.504,83h19.028c0.755,0,1.37,0.615,1.37,1.37S74.288,85.74,73.532,85.74z"/>
		</g>
	</g>
	<g>
		<g>
			<rect x="111.934" y="87.24" class="st1" width="14.739" height="7.074"/>
		</g>
	</g>
	<g>
		<g>
			<path class="st0" d="M126.673,85.74h-14.739c-0.829,0-1.5,0.671-1.5,1.5v7.075c0,0.829,0.671,1.5,1.5,1.5h14.739     c0.829,0,1.5-0.671,1.5-1.5V87.24C128.173,86.411,127.501,85.74,126.673,85.74z M125.173,92.814h-11.739V88.74h11.739V92.814z"/>
		</g>
	</g>
	<g>
		<g>
			<path class="st1" d="M128.817,81.5h-19.028c-1.585,0-2.87,1.285-2.87,2.87s1.285,2.87,2.87,2.87h19.028     c1.585,0,2.87-1.285,2.87-2.87S130.402,81.5,128.817,81.5z"/>
		</g>
	</g>
	<g>
		<g>
			<path class="st0" d="M128.817,80H109.79c-2.409,0-4.37,1.96-4.37,4.37c0,2.409,1.961,4.37,4.37,4.37h19.028     c2.41,0,4.37-1.96,4.37-4.37C133.188,81.96,131.227,80,128.817,80z M128.817,85.74H109.79c-0.755,0-1.37-0.614-1.37-1.37     s0.614-1.37,1.37-1.37h19.028c0.756,0,1.37,0.615,1.37,1.37S129.573,85.74,128.817,85.74z"/>
		</g>
	</g>
	<g>
		<g>
			<path class="st0" d="M81.753,88.279c-0.829,0-1.5,0.671-1.5,1.5V169.5c0,0.828,0.671,1.5,1.5,1.5s1.5-0.672,1.5-1.5V89.779     C83.253,88.951,82.581,88.279,81.753,88.279z"/>
		</g>
	</g>
	<g>
		<g>
			<path class="st0" d="M101.569,88.279c-0.829,0-1.5,0.671-1.5,1.5V169.5c0,0.828,0.671,1.5,1.5,1.5s1.5-0.672,1.5-1.5V89.779     C103.069,88.951,102.398,88.279,101.569,88.279z"/>
		</g>
	</g>
	<g>
		<g>
			<path class="st0" d="M101.569,159.275H81.753c-0.829,0-1.5,0.672-1.5,1.5s0.671,1.5,1.5,1.5h19.816c0.829,0,1.5-0.672,1.5-1.5     S102.398,159.275,101.569,159.275z"/>
		</g>
	</g>
	<g>
		<g>
			<path class="st0" d="M101.569,149.296H81.753c-0.829,0-1.5,0.672-1.5,1.5s0.671,1.5,1.5,1.5h19.816c0.829,0,1.5-0.672,1.5-1.5     S102.398,149.296,101.569,149.296z"/>
		</g>
	</g>
	<g>
		<g>
			<path class="st0" d="M101.569,139.316H81.753c-0.829,0-1.5,0.672-1.5,1.5s0.671,1.5,1.5,1.5h19.816c0.829,0,1.5-0.672,1.5-1.5     S102.398,139.316,101.569,139.316z"/>
		</g>
	</g>
	<g>
		<g>
			<path class="st0" d="M101.569,129.337H81.753c-0.829,0-1.5,0.672-1.5,1.5s0.671,1.5,1.5,1.5h19.816c0.829,0,1.5-0.672,1.5-1.5     S102.398,129.337,101.569,129.337z"/>
		</g>
	</g>
	<g>
		<g>
			<path class="st0" d="M101.569,119.357H81.753c-0.829,0-1.5,0.671-1.5,1.5s0.671,1.5,1.5,1.5h19.816c0.829,0,1.5-0.671,1.5-1.5     S102.398,119.357,101.569,119.357z"/>
		</g>
	</g>
	<g>
		<g>
			<path class="st0" d="M101.569,109.377H81.753c-0.829,0-1.5,0.671-1.5,1.5s0.671,1.5,1.5,1.5h19.816c0.829,0,1.5-0.671,1.5-1.5     S102.398,109.377,101.569,109.377z"/>
		</g>
	</g>
	<g>
		<g>
			<path class="st0" d="M101.569,99.397H81.753c-0.829,0-1.5,0.671-1.5,1.5s0.671,1.5,1.5,1.5h19.816c0.829,0,1.5-0.671,1.5-1.5     S102.398,99.397,101.569,99.397z"/>
		</g>
	</g>
	<g>
		<g>
			
				<ellipse transform="matrix(0.7071 -0.7071 0.7071 0.7071 -129.3768 90.4683)" class="st6" cx="44.517" cy="201.406" rx="23.158" ry="23.158"/>
		</g>
	</g>
	<g>
		<g>
			<path class="st0" d="M44.517,176.748c-13.597,0-24.658,11.062-24.658,24.657c0,13.597,11.061,24.658,24.658,24.658     c13.596,0,24.658-11.062,24.658-24.658C69.174,187.81,58.113,176.748,44.517,176.748z M44.517,223.063     c-11.942,0-21.658-9.716-21.658-21.658c0-11.941,9.716-21.657,21.658-21.657c11.942,0,21.658,9.716,21.658,21.657     C66.174,213.348,56.458,223.063,44.517,223.063z"/>
		</g>
	</g>
	<g>
		<g>
			<circle class="st7" cx="44.516" cy="201.405" r="10.256"/>
		</g>
	</g>
	<g>
		<g>
			<path class="st0" d="M44.517,189.649c-6.482,0-11.756,5.273-11.756,11.756s5.274,11.757,11.756,11.757     s11.756-5.274,11.756-11.757S50.999,189.649,44.517,189.649z M44.517,210.162c-4.828,0-8.756-3.929-8.756-8.757     s3.928-8.756,8.756-8.756c4.828,0,8.756,3.928,8.756,8.756S49.345,210.162,44.517,210.162z"/>
		</g>
	</g>
	<g>
		<g>
			
				<ellipse transform="matrix(0.1602 -0.9871 0.9871 0.1602 -114.1342 268.6629)" class="st6" cx="100.821" cy="201.406" rx="23.158" ry="23.158"/>
		</g>
	</g>
	<g>
		<g>
			<path class="st0" d="M100.821,176.748c-13.597,0-24.658,11.062-24.658,24.657c0,13.597,11.061,24.658,24.658,24.658     c13.596,0,24.658-11.062,24.658-24.658C125.478,187.81,114.417,176.748,100.821,176.748z M100.821,223.063     c-11.942,0-21.658-9.716-21.658-21.658c0-11.941,9.716-21.657,21.658-21.657c11.942,0,21.658,9.716,21.658,21.657     C122.478,213.348,112.763,223.063,100.821,223.063z"/>
		</g>
	</g>
	<g>
		<g>
			
				<ellipse transform="matrix(0.9951 -0.0985 0.0985 0.9951 -19.3552 10.9147)" class="st7" cx="100.82" cy="201.405" rx="10.256" ry="10.256"/>
		</g>
	</g>
	<g>
		<g>
			<path class="st0" d="M100.82,189.649c-6.482,0-11.756,5.273-11.756,11.756s5.273,11.757,11.756,11.757     c6.482,0,11.756-5.274,11.756-11.757S107.303,189.649,100.82,189.649z M100.82,210.162c-4.828,0-8.756-3.929-8.756-8.757     s3.928-8.756,8.756-8.756c4.828,0,8.756,3.928,8.756,8.756S105.648,210.162,100.82,210.162z"/>
		</g>
	</g>
	<g>
		<g>
			<circle class="st6" cx="196.131" cy="201.406" r="23.158"/>
		</g>
	</g>
	<g>
		<g>
			<path class="st0" d="M196.131,176.748c-13.597,0-24.658,11.062-24.658,24.657c0,13.597,11.061,24.658,24.658,24.658     c13.596,0,24.657-11.062,24.657-24.658C220.788,187.81,209.727,176.748,196.131,176.748z M196.131,223.063     c-11.942,0-21.658-9.716-21.658-21.658c0-11.941,9.716-21.657,21.658-21.657c11.941,0,21.657,9.716,21.657,21.657     C217.788,213.348,208.072,223.063,196.131,223.063z"/>
		</g>
	</g>
	<g>
		<g>
			
				<ellipse transform="matrix(0.9732 -0.2298 0.2298 0.9732 -41.0266 50.4491)" class="st7" cx="196.131" cy="201.405" rx="10.256" ry="10.256"/>
		</g>
	</g>
	<g>
		<g>
			<path class="st0" d="M196.131,189.649c-6.482,0-11.757,5.273-11.757,11.756s5.274,11.757,11.757,11.757     s11.756-5.274,11.756-11.757S202.613,189.649,196.131,189.649z M196.131,210.162c-4.828,0-8.757-3.929-8.757-8.757     s3.929-8.756,8.757-8.756s8.756,3.928,8.756,8.756S200.959,210.162,196.131,210.162z"/>
		</g>
	</g>
	<g>
		<g>
			<path class="st9" d="M183.71,100.79h-9.86c13.65,0,26.86,5.27,36.79,14.55h9.86C210.58,106.06,197.37,100.79,183.71,100.79z"/>
		</g>
	</g>
	<g>
		<g>
			<rect x="227.71" y="155.18" class="st9" width="9.87" height="36.17"/>
		</g>
	</g>
	<g>
		<g>
			<path class="st5" d="M223.49,118.34h-9.87c8.52,9.32,13.46,21.25,14.03,33.84h9.87C236.95,139.59,232,127.66,223.49,118.34z"/>
		</g>
	</g>
	<g>
		<g>
			<path class="st8" d="M240.44,194.35h-9.66c1.57,0,2.85,1.28,2.85,2.85c0,1.57-1.28,2.85-2.85,2.85h9.66     c1.57,0,2.85-1.28,2.85-2.85C243.29,195.63,242.01,194.35,240.44,194.35z"/>
		</g>
	</g>
</g>
</svg>
