<svg id="Layer_1" enable-background="new 0 0 64 64" height="512" viewBox="0 0 64 64" width="512" xmlns="http://www.w3.org/2000/svg"><path d="m49.7 36.2-9.7-5.2h-16l-9.7 5.2c-3.3 1.7-5.3 5.1-5.3 8.8v16h44v-15l2-1c0-3.7-2-7.1-5.3-8.8z" fill="#c61e1e"/><path d="m42 49h2v12h-2z" fill="#991616"/><path d="m24 31-5.9 3.1 7.9 6.9 6-6v-4z" fill="#ede064"/><path d="m40.1 31 5.9 3.1-7.9 6.9-6-6v-4z" fill="#ede064"/><path d="m19 19c-1.1 0-2 .9-2 2v1.8c0 .8.4 1.5 1.1 1.8l2.9 1.4v-7z" fill="#ce7c5f"/><path d="m45 19h-2v7l2.9-1.4c.7-.3 1.1-1 1.1-1.8v-1.8c0-1.1-.9-2-2-2z" fill="#ce7c5f"/><path d="m21 15v9c0 4.2 2.6 8 6.6 9.4l4.4 1.6 4.4-1.6c4-1.4 6.6-5.2 6.6-9.4v-9z" fill="#d8927c"/><path d="m33 3h-2c-5.5 0-10 4.5-10 10v2h22v-2c0-5.5-4.5-10-10-10z" fill="#c61e1e"/><path d="m21 15c0 3.9 3.1 7 7 7h8c3.9 0 7-3.1 7-7z" fill="#991616"/><path d="m20 49h2v12h-2z" fill="#991616"/><path d="m51 43h-8c-1.1 0-2 .9-2 2v16h12v-16c0-1.1-.9-2-2-2z" fill="#3f3f3f"/><path d="m53 48h-12v-3c0-1.1.9-2 2-2h8c1.1 0 2 .9 2 2z" fill="#2b2b2b"/><path d="m55 58h-2v-2h2c.6 0 1-.4 1-1v-6.2c0-.3-.1-.5-.3-.7l-1.1-1.1h-1.6v-2h2.4l1.7 1.7c.6.6.9 1.3.9 2.1v6.2c0 1.7-1.3 3-3 3z" fill="#2b2b2b"/><g fill="#991616"><path d="m31 46h2v2h-2z"/><path d="m31 51h2v2h-2z"/><path d="m31 56h2v2h-2z"/></g><path d="m47 52-1.4 1.4c-.4.4-.6.9-.6 1.4v.2c0 1.1.9 2 2 2 1.1 0 2-.9 2-2v-.2c0-.5-.2-1-.6-1.4z" fill="#ffa500"/><path d="m31 41h2v2h-2z" fill="#991616"/><path d="m33 3h-1l.5.5c2.2 2.2 3.5 5.3 3.5 8.5v3h7v-2c0-5.5-4.5-10-10-10z" fill="#e23333"/><path d="m31 3h1l-.5.5c-2.2 2.2-3.5 5.3-3.5 8.5v3h-7v-2c0-5.5 4.5-10 10-10z" fill="#e23333"/><path d="m57.1 46.7-1.1-1.1v-.6c0-4.1-2.2-7.8-5.8-9.7l-8.5-4.5c.9-1.2 1.6-2.5 2-3.9l2.7-1.4c1-.5 1.7-1.5 1.7-2.7v-1.8c0-1.7-1.3-3-3-3h-1v-5c0-6.1-4.9-11-11-11h-2c-6.1 0-11 4.9-11 11v5h-1c-1.7 0-3 1.3-3 3v1.8c0 1.1.6 2.2 1.7 2.7l2.7 1.4c.4 1.4 1.1 2.8 2 3.9l-8.5 4.5c-3.8 1.9-6 5.6-6 9.7v17h48v-2h-2v-2h1c1.7 0 3-1.3 3-3v-6.2c0-.8-.3-1.5-.9-2.1zm-5.1.3h-10v-2c0-.6.4-1 1-1h8c.6 0 1 .4 1 1zm-24.8-12.7 2.9 1.1-4.1 4.2-6.1-5.3 3.9-2.1c1 1 2.2 1.7 3.4 2.1zm13-2 3.9 2.1-6.1 5.2-4.2-4.2 2.9-1.1c1.3-.4 2.5-1.1 3.5-2zm-8.2-27.9c1.9 2 3 4.7 3 7.5v2h-6v-2c0-2.7 1.1-5.4 3-7.5zm9.9 11.6c-.5 2.9-3 5-5.9 5h-8c-2.9 0-5.4-2.1-5.9-5zm3.1 4c.6 0 1 .4 1 1v1.8c0 .4-.2.7-.6.9l-1.4.7c0-.1 0-.3 0-.4v-4zm-3-7v1h-5v-2c0-2.8-.9-5.6-2.7-7.9 4.4.7 7.7 4.5 7.7 8.9zm-20 0c0-4.4 3.3-8.2 7.7-8.9-1.8 2.3-2.7 5-2.7 7.9v2h-5zm-3.4 10.7c-.3-.2-.6-.5-.6-.9v-1.8c0-.6.4-1 1-1h1v4 .4zm3.4-3.4c1.5 1.7 3.7 2.7 6 2.7h8c2.3 0 4.5-1 6-2.7v3.7c0 3.8-2.4 7.2-5.9 8.5l-4.1 1.4-4.1-1.5c-3.5-1.2-5.9-4.6-5.9-8.4zm-12 24.7c0-3.3 1.8-6.4 4.8-7.9l3.2-1.7 8 7 6-6 6 6 8-7 3.2 1.7c2.9 1.6 4.8 4.6 4.8 7.9 0-1.7-1.3-3-3-3h-8c-1.7 0-3 1.3-3 3v15h-18v-11h-2v11h-10zm32 15v-11h10v11zm14-5c0 .6-.4 1-1 1h-1v-9h.6l1.1 1.1c.2.2.3.4.3.7z"/><path d="m31 46h2v2h-2z"/><path d="m31 51h2v2h-2z"/><path d="m31 56h2v2h-2z"/><path d="m49.1 52.7-2.1-2.1-2.1 2.1c-.6.6-.9 1.3-.9 2.1v.2c0 1.7 1.3 3 3 3s3-1.3 3-3v-.2c0-.8-.3-1.5-.9-2.1zm-1.1 2.3c0 .6-.4 1-1 1s-1-.4-1-1v-.2c0-.3.1-.5.3-.7l.7-.7.7.7c.2.2.3.4.3.7z"/><path d="m31 41h2v2h-2z"/></svg>