<?xml version="1.0" encoding="iso-8859-1"?>
<!-- Generator: Adobe Illustrator 19.0.0, SVG Export Plug-In . SVG Version: 6.00 Build 0)  -->
<svg version="1.1" id="Capa_1" xmlns="http://www.w3.org/2000/svg" xmlns:xlink="http://www.w3.org/1999/xlink" x="0px" y="0px"
	 viewBox="0 0 512 512" style="enable-background:new 0 0 512 512;" xml:space="preserve">
<path style="fill:#D8E6F0;" d="M341.262,359.214l-64.711-23.229c-15.373-5.52-32.302-5.52-47.673,0l-64.711,23.229
	c-26.933,9.668-45.029,35.391-45.029,64.007v75.078c0,7.555,6.146,13.701,13.701,13.701H372.59c7.555,0,13.701-6.146,13.701-13.701
	v-75.078C386.291,394.604,368.194,368.882,341.262,359.214z"/>
<path style="fill:#B4CBDB;" d="M341.262,359.214l-64.711-23.229c-11.875-4.264-24.676-5.22-36.972-2.896
	c3.623,0.684,7.204,1.64,10.702,2.896l64.711,23.229c26.933,9.668,45.029,35.391,45.029,64.007v75.078
	c0,7.555-6.146,13.701-13.701,13.701h26.27c7.555,0,13.701-6.146,13.701-13.701v-75.078
	C386.291,394.604,368.194,368.882,341.262,359.214z"/>
<path style="fill:#BED9EA;" d="M232.198,314.393l-12.08,5.351c-16.095,7.129-26.29,23.273-25.809,40.869l1.578,57.796
	c0.102,3.752,4.19,6.022,7.429,4.124l49.4-28.935l49.4,28.935c3.239,1.897,7.326-0.372,7.429-4.124l1.578-57.796
	c0.48-17.596-9.715-33.74-25.809-40.869l-12.08-5.351C260.166,308.606,245.263,308.606,232.198,314.393z"/>
<path style="fill:#F0B27D;" d="M219.976,293.365v59.174c0,18.081,32.739,41.059,32.739,41.059s32.739-22.978,32.739-41.059v-59.174
	H219.976z"/>
<polygon style="fill:#394245;" points="236.099,426.075 221.202,512 284.227,512 269.33,426.075 "/>
<path style="fill:#636D70;" d="M252.715,393.599l-31.512,18.457c3.869,13.769,16.507,23.868,31.512,23.868
	s27.644-10.099,31.512-23.868L252.715,393.599z"/>
<path style="fill:#935D38;" d="M398.44,148.718c-7.794,45.791-36.089,81.626-61.034,76.663
	c-24.956-4.963-38.951-40.26-31.278-78.825c6.475-0.172,12.564-0.842,18.308-1.959c8.322-1.613,15.893-4.141,22.774-7.398
	c18.725-8.86,32.344-23.068,41.995-38.728C398.521,108.783,402.448,125.143,398.44,148.718z"/>
<path style="fill:#B4CBDB;" d="M360.299,325.857c-1.919,0-3.839-0.732-5.304-2.196c-2.929-2.93-2.929-7.678,0-10.607l12.333-12.332
	V254.9c0-4.143,3.357-7.5,7.5-7.5s7.5,3.357,7.5,7.5v48.928c0,1.989-0.79,3.896-2.196,5.304l-14.529,14.529
	C364.138,325.125,362.218,325.857,360.299,325.857z"/>
<g>
	<path style="fill:#636D70;" d="M132.896,267.428h42.858v-78.052h-42.858c-10.228,0-18.52,8.292-18.52,18.52v41.013
		C114.376,259.136,122.668,267.428,132.896,267.428z"/>
	<path style="fill:#636D70;" d="M372.533,267.428h-42.858v-78.052h42.858c10.228,0,18.52,8.292,18.52,18.52v41.013
		C391.053,259.136,382.762,267.428,372.533,267.428z"/>
</g>
<path style="fill:#F9C295;" d="M349.33,149.053v109.058c0,37.073-56.599,78.916-96.615,78.916c-0.548,0-1.096-0.01-1.644-0.03
	c-0.335,0-0.67-0.01-1.004-0.041c-0.183,0-0.376-0.01-0.568-0.02c-0.325-0.01-0.65-0.031-0.974-0.061
	c-0.386-0.02-0.772-0.051-1.157-0.091c-0.376-0.031-0.761-0.061-1.147-0.111c-0.832-0.081-1.665-0.193-2.497-0.305
	c-0.234-0.041-0.477-0.071-0.711-0.102c-0.396-0.061-0.781-0.122-1.177-0.193c-0.406-0.061-0.812-0.132-1.228-0.213
	c-0.061,0-0.122-0.01-0.183-0.03c-38.362-7.033-84.325-44.309-84.325-77.719v-84.153c11.529-7.389,25.29-23.18,31.572-49.881
	c2.578,1.522,5.247,2.974,8.018,4.364c25.25,12.645,58.74,19.496,110.438,18.115c6.475-0.172,12.564-0.842,18.308-1.959
	c8.322-1.613,15.893-4.141,22.774-7.398C348.579,140.893,349.33,144.882,349.33,149.053z"/>
<path style="fill:#DE9962;" d="M349.33,149.053v109.058c0,37.073-56.599,78.916-96.615,78.916c-0.548,0-1.096-0.01-1.644-0.03
	c-0.335,0-0.67-0.01-1.004-0.041c-0.183,0-0.376-0.01-0.568-0.02c-0.325-0.01-0.65-0.031-0.974-0.061
	c-0.386-0.02-0.772-0.051-1.157-0.091c-0.376-0.031-0.761-0.061-1.147-0.111c-0.832-0.081-1.665-0.193-2.497-0.305
	c-0.234-0.041-0.477-0.071-0.711-0.102c-0.396-0.061-0.781-0.122-1.177-0.193c-0.406-0.061-0.812-0.132-1.228-0.213
	c-0.061,0-0.122-0.01-0.183-0.03c38.372-7.054,84.305-44.309,84.305-77.719V149.053c0-1.512-0.102-2.994-0.294-4.455
	c8.322-1.613,15.893-4.141,22.774-7.398C348.579,140.893,349.33,144.882,349.33,149.053z"/>
<g>
	<path style="fill:#3A3B4A;" d="M252.95,275.848c-11.417,0-22.829-4.309-31.726-12.93c-2.975-2.883-3.049-7.631-0.166-10.605
		c2.882-2.975,7.63-3.05,10.605-0.166c11.935,11.565,30.636,11.566,42.574,0c2.975-2.884,7.724-2.808,10.604,0.167
		c2.883,2.975,2.808,7.723-0.167,10.604C275.782,271.537,264.364,275.848,252.95,275.848z"/>
	<path style="fill:#3A3B4A;" d="M318.771,212.679c-2.097,0-4.183-0.875-5.666-2.582c-1.374-1.583-3.112-2.454-4.895-2.454
		s-3.521,0.871-4.895,2.454c-2.718,3.127-7.454,3.459-10.581,0.745c-3.127-2.716-3.461-7.453-0.745-10.581
		c4.205-4.841,10.117-7.618,16.221-7.618s12.016,2.777,16.221,7.618c2.716,3.128,2.382,7.865-0.745,10.581
		C322.266,212.074,320.514,212.679,318.771,212.679z"/>
	<path style="fill:#3A3B4A;" d="M207.779,212.679c-2.097,0-4.183-0.875-5.666-2.582c-1.374-1.583-3.112-2.454-4.895-2.454
		s-3.521,0.871-4.895,2.454c-2.718,3.127-7.454,3.459-10.581,0.745c-3.127-2.716-3.461-7.453-0.745-10.581
		c4.205-4.841,10.117-7.618,16.221-7.618s12.016,2.777,16.221,7.618c2.716,3.128,2.382,7.865-0.745,10.581
		C211.274,212.074,209.522,212.679,207.779,212.679z"/>
</g>
<path style="fill:#FFDC48;" d="M365.603,313.055c-3.581-3.581-8.342-5.554-13.406-5.554s-9.825,1.973-13.405,5.553l-5.564,5.563
	c-7.391,7.392-7.391,19.42,0.001,26.813c3.696,3.695,8.551,5.543,13.405,5.543c4.855,0,9.71-1.848,13.406-5.543l0.001-0.001
	l5.562-5.563c3.581-3.581,5.554-8.342,5.554-13.406S369.183,316.635,365.603,313.055z"/>
<path style="fill:#B78358;" d="M389.204,98.472c22.743-36.84,23.565-81.646,17.435-83.3c-10.372-2.801-61.775-4.943-172.528-14.208
	c-103.547-8.667-102.776,43.233-98.209,71.578c-23.971,5.419-38.332,23.352-32.506,58.101c4.17,24.83,15.538,46.337,29.291,58.743
	c0.07-0.001,0.138-0.01,0.207-0.01h23.203v-15.418c11.529-7.389,25.29-23.18,31.572-49.881c2.578,1.522,5.247,2.974,8.018,4.364
	c25.25,12.645,58.74,19.496,110.438,18.115c6.475-0.172,12.564-0.842,18.308-1.959c8.322-1.613,15.893-4.141,22.774-7.398
	C365.933,128.339,379.553,114.131,389.204,98.472z"/>
<g>
</g>
<g>
</g>
<g>
</g>
<g>
</g>
<g>
</g>
<g>
</g>
<g>
</g>
<g>
</g>
<g>
</g>
<g>
</g>
<g>
</g>
<g>
</g>
<g>
</g>
<g>
</g>
<g>
</g>
</svg>
