<svg height="480pt" viewBox="0 -80 480 480" width="480pt" xmlns="http://www.w3.org/2000/svg"><path d="m8 216h304v48h-304zm0 0" fill="#226c8a"/><path d="m472 264h-160v-184c0-8.835938 7.164062-16 16-16h113.871094c8.070312 0 14.878906 6.007812 15.882812 14.015625l14.246094 113.984375zm0 0" fill="#0080a4"/><path d="m208 272c0 22.089844-17.910156 40-40 40s-40-17.910156-40-40 17.910156-40 40-40 40 17.910156 40 40zm0 0" fill="#666"/><path d="m440 272c0 22.089844-17.910156 40-40 40s-40-17.910156-40-40 17.910156-40 40-40 40 17.910156 40 40zm0 0" fill="#666"/><path d="m100 32h96c50.808594 0 92 41.191406 92 92s-41.191406 92-92 92h-96c-50.808594 0-92-41.191406-92-92s41.191406-92 92-92zm0 0" fill="#ffcd34"/><path d="m112 8h72v24h-72zm0 0" fill="#fbb03b"/><path d="m460 96h-116v80h126zm0 0" fill="#acdee0"/><path d="m440 200h32v32h-32zm0 0" fill="#f2f2f2"/><path d="m112 272c0 22.089844-17.910156 40-40 40s-40-17.910156-40-40 17.910156-40 40-40 40 17.910156 40 40zm0 0" fill="#666"/><g fill="#53a2ab"><path d="m72 256c-8.835938 0-16 7.164062-16 16s7.164062 16 16 16 16-7.164062 16-16-7.164062-16-16-16z"/><path d="m168 288c-8.835938 0-16-7.164062-16-16s7.164062-16 16-16 16 7.164062 16 16-7.164062 16-16 16z"/><path d="m400 288c-8.835938 0-16-7.164062-16-16s7.164062-16 16-16 16 7.164062 16 16-7.164062 16-16 16z"/></g><path d="m72 256c-8.835938 0-16 7.164062-16 16s7.164062 16 16 16 16-7.164062 16-16-7.164062-16-16-16zm0 24v-8zm0 0"/><path d="m168 256c-8.835938 0-16 7.164062-16 16s7.164062 16 16 16 16-7.164062 16-16-7.164062-16-16-16zm0 24v-8zm0 0"/><path d="m400 256c-8.835938 0-16 7.164062-16 16s7.164062 16 16 16 16-7.164062 16-16-7.164062-16-16-16zm0 24v-8zm0 0"/><path d="m477.9375 175.007812-14-112c-.5-4.003906-3.902344-7.007812-7.9375-7.007812h-144c-4.417969 0-8 3.582031-8 8v144h-53.9375c37.332031-23.96875 54.390625-69.683594 41.882812-112.25-12.507812-42.5625-51.582031-71.785156-95.945312-71.75h-4v-16c0-4.417969-3.582031-8-8-8h-72c-4.417969 0-8 3.582031-8 8v16h-4c-44.363281-.035156-83.4375 29.1875-95.945312 71.75-12.507813 42.566406 4.550781 88.28125 41.882812 112.25h-37.9375c-4.417969 0-8 3.582031-8 8v48c0 4.417969 3.582031 8 8 8h16c.003906 11.824219 4.394531 23.226562 12.320312 32h-36.320312v16h480v-16h-44.320312c7.925781-8.773438 12.316406-20.175781 12.320312-32h24c4.417969 0 8-3.582031 8-8v-72c0-.332031-.023438-.664062-.0625-.992188zm-13.9375 48.992188h-16v-16h16zm-3.0625-56h-108.9375v-64h100.9375zm-96.617188 136h-160.640624c7.925781-8.773438 12.316406-20.175781 12.320312-32h136c.003906 11.824219 4.394531 23.226562 12.320312 32zm-228.320312-32c0-17.671875 14.328125-32 32-32s32 14.328125 32 32-14.328125 32-32 32-32-14.328125-32-32zm144-148c-.054688 46.371094-37.628906 83.945312-84 84h-20v-168h20c46.371094.054688 83.945312 37.628906 84 84zm-120 60h-24v-16h24zm0-32h-24v-16h24zm0-32h-24v-16h24zm0-32h-24v-16h24zm0-32h-24v-16h24zm-24 144h24v8h-24zm-16-184h56v8h-56zm-104 108c.054688-46.371094 37.628906-83.945312 84-84h20v168h-20c-46.371094-.054688-83.945312-37.628906-84-84zm0 132v-32h288v32h-90.800781c-6.433594-18.316406-23.277344-30.945312-42.664063-31.992188-19.386718-1.046874-37.488281 9.699219-45.859375 27.214844-8.367187 17.519532-5.351562 38.355469 7.644531 52.777344h-24.640624c12.972656-14.425781 15.976562-35.246094 7.609374-52.75-8.367187-17.503906-26.457031-28.238281-45.832031-27.199219-19.371093 1.039063-36.210937 13.648438-42.65625 31.949219zm24 16c0-17.671875 14.328125-32 32-32s32 14.328125 32 32-14.328125 32-32 32-32-14.328125-32-32zm328 0c0-17.671875 14.328125-32 32-32s32 14.328125 32 32-14.328125 32-32 32-32-14.328125-32-32zm77.199219-16c-6.75-19.175781-24.867188-32.003906-45.199219-32.003906s-38.449219 12.828125-45.199219 32.003906h-34.800781v-184h128.9375l2 16h-106.9375c-4.417969 0-8 3.582031-8 8v80c0 4.417969 3.582031 8 8 8h118.9375l1 8h-23.9375c-4.417969 0-8 3.582031-8 8v32c0 4.417969 3.582031 8 8 8h24v16zm0 0"/></svg>